<svg xmlns="http://www.w3.org/2000/svg" viewBox="0 0 60 64" width="60" height="64">
	<style>
		tspan { white-space:pre }
		.shp0 { fill: #226083 } 
	</style>
	<path id="Shape 803" class="shp0" d="M47.76 62.74C41.78 55.55 35.21 49 28.04 42.99C27.32 42.39 27.92 41.38 28.7 41.29C32.28 40.87 35.86 40.44 39.45 40.15C33.63 25.3 16.69 21.24 2 21.36C1.39 21.36 0.82 20.76 1.02 20.14C2.94 14 4.85 7.87 6.77 1.73C6.94 1.2 7.41 0.91 7.97 1C27.75 4.25 44.12 19.38 48.97 38.73C51.93 37.61 54.89 36.85 58.04 36.39C58.86 36.27 59.16 37.24 58.92 37.84C55.72 46.05 52.51 54.27 49.31 62.48C49.09 63.04 48.14 63.19 47.76 62.74ZM8.41 3.1C7.89 4.75 7.38 6.41 6.86 8.07C10.34 7.17 13.88 6.32 17.42 5.69C14.54 4.55 11.52 3.67 8.41 3.1ZM19.06 6.37C14.96 7.35 10.76 8.09 6.61 8.86C5.7 11.77 4.79 14.68 3.88 17.59C12.92 15.54 22.3 14.81 31.53 14.25C27.8 11.03 23.61 8.36 19.06 6.37ZM32.68 15.28C22.96 16.26 13.25 16.67 3.62 18.45C3.52 18.76 3.42 19.07 3.33 19.38C9.3 19.44 15.51 20.2 21.21 22.02C26.81 21.57 32.6 21.14 38.17 21.21C36.5 19.09 34.67 17.1 32.68 15.28ZM38.86 22.11C38.84 22.11 38.83 22.12 38.81 22.13C34 22.85 28.82 23.01 23.8 22.93C27.44 24.35 30.81 26.25 33.69 28.73C36.87 28.76 40.08 28.89 43.24 29.13C41.97 26.67 40.51 24.31 38.86 22.11ZM43.83 30.32C40.85 30.24 37.83 30.04 34.84 29.77C37 31.84 38.84 34.29 40.27 37.14C41.16 37.39 42.05 37.61 42.97 37.75C44.22 37.94 45.47 37.89 46.71 37.96C45.97 35.32 45 32.76 43.83 30.32ZM56.51 38.64C53.77 39.15 51.15 39.92 48.54 40.98C48.06 41.17 47.43 40.78 47.32 40.31C47.23 39.9 47.11 39.51 47.01 39.11C45.03 39.29 42.76 38.85 40.76 38.15C41.21 39.14 41.61 40.18 41.96 41.27C42.35 42.48 40.43 43.03 40.05 41.82C40.03 41.76 40 41.7 39.98 41.63C37.01 42.14 34.02 42.55 31.03 42.95C31.33 43.2 31.62 43.46 31.91 43.72C39.06 44.82 46.2 45.6 53.4 46.36C53.43 46.37 53.46 46.38 53.49 46.39C54.5 43.8 55.5 41.22 56.51 38.64ZM33.25 44.89C35.91 47.25 38.48 49.71 40.96 52.25C42.54 51.93 44.34 52.34 45.91 52.49C47.57 52.64 49.27 52.72 50.9 53.01C51.61 51.21 52.31 49.4 53.02 47.6C46.41 47.27 39.74 46.27 33.25 44.89ZM50.42 54.27C48.87 54.13 47.32 53.83 45.79 53.58C44.43 53.37 42.85 53.3 41.51 52.83C43.79 55.19 46 57.62 48.13 60.13C48.89 58.18 49.65 56.22 50.42 54.27Z" />
</svg>