<svg xmlns="http://www.w3.org/2000/svg" viewBox="0 0 66 62" width="66" height="62">
	<style>
		tspan { white-space:pre }
		.shp0 { fill: #226083 } 
	</style>
	<path id="Shape 803 copy" class="shp0" d="M65.71 12.52C58.17 18.72 51.29 25.54 44.98 32.97C44.35 33.71 43.31 33.1 43.21 32.3C42.78 28.6 42.34 24.9 42.05 21.19C26.5 27.26 22.19 44.77 22.26 59.96C22.27 60.58 21.64 61.17 20.98 60.97C14.58 59.02 8.17 57.06 1.76 55.1C1.19 54.93 0.9 54.44 0.99 53.86C4.46 33.4 20.35 16.44 40.6 11.36C39.44 8.3 38.66 5.25 38.18 2C38.06 1.14 39.08 0.84 39.71 1.08C48.29 4.36 56.87 7.64 65.45 10.92C66.03 11.14 66.19 12.13 65.71 12.52ZM3.19 53.39C4.92 53.92 6.65 54.45 8.38 54.98C7.45 51.39 6.57 47.73 5.93 44.07C4.72 47.06 3.8 50.18 3.19 53.39ZM6.65 42.38C7.66 46.61 8.42 50.95 9.21 55.24C12.25 56.16 15.29 57.09 18.33 58.02C16.22 48.7 15.48 39 14.93 29.47C11.56 33.33 8.75 37.67 6.65 42.38ZM16.02 28.27C17 38.31 17.41 48.35 19.23 58.29C19.55 58.39 19.88 58.49 20.2 58.59C20.28 52.42 21.1 46 23.03 40.1C22.58 34.32 22.15 28.33 22.24 22.59C20.02 24.32 17.93 26.22 16.02 28.27ZM23.18 21.86C23.19 21.88 23.2 21.9 23.2 21.92C23.94 26.88 24.09 32.24 23.99 37.43C25.49 33.66 27.48 30.17 30.09 27.18C30.13 23.9 30.28 20.58 30.54 17.32C27.96 18.63 25.49 20.15 23.18 21.86ZM31.79 16.7C31.69 19.78 31.48 22.9 31.18 25.99C33.35 23.75 35.92 21.84 38.91 20.35C39.17 19.43 39.41 18.51 39.55 17.56C39.76 16.27 39.71 14.98 39.79 13.69C37.02 14.47 34.35 15.48 31.79 16.7ZM40.53 3.57C41.06 6.4 41.86 9.1 42.96 11.79C43.16 12.29 42.75 12.94 42.25 13.06C41.83 13.15 41.41 13.27 41 13.38C41.18 15.43 40.7 17.77 39.97 19.84C41.01 19.38 42.09 18.96 43.23 18.59C44.5 18.19 45.07 20.16 43.8 20.57C43.74 20.59 43.67 20.61 43.61 20.64C44.13 23.71 44.55 26.79 44.95 29.88C45.22 29.57 45.49 29.27 45.76 28.97C46.94 21.58 47.78 14.2 48.6 6.76C48.61 6.72 48.62 6.69 48.63 6.66C45.93 5.63 43.23 4.6 40.53 3.57ZM46.99 27.58C49.47 24.82 52.05 22.16 54.72 19.58C54.39 17.96 54.83 16.1 54.98 14.47C55.15 12.76 55.23 11 55.55 9.31C53.67 8.59 51.78 7.87 49.89 7.15C49.52 13.97 48.46 20.87 46.99 27.58ZM56.86 9.81C56.72 11.41 56.39 13.01 56.13 14.59C55.9 16 55.82 17.64 55.33 19.02C57.81 16.66 60.35 14.36 62.99 12.15C60.95 11.37 58.9 10.59 56.86 9.81Z" />
</svg>