<svg xmlns="http://www.w3.org/2000/svg" viewBox="0 0 78 85" width="78" height="85">
	<style>
		tspan { white-space:pre }
		.shp0 { fill: #000000 } 
	</style>
	<path id="Shape 526" class="shp0" d="M28.19 84.84C18.8 78.46 9.83 71.55 1.27 64.09C0.84 63.72 0.88 62.96 1.27 62.58C10.14 53.9 20.72 47.61 32.56 43.97C33.25 43.75 33.89 44.33 33.92 45C34.11 49.43 33.71 53.7 32.74 57.99C37.98 58.85 43.78 58.8 48.46 56.04C54.17 52.68 55.72 46.23 56.01 40.05C56.56 27.88 52.9 16.1 48.32 4.98C48.01 4.25 48.91 3.39 49.63 3.67C55.02 5.75 60.01 8.42 64.7 11.76C66.35 9.77 67.92 7.74 69.27 5.53C70.24 3.95 70.88 1.68 72.44 0.63C72.71 0.45 72.98 0.7 73.01 0.96C73.03 1.09 73.01 1.22 73.01 1.35C73.07 1.35 73.12 1.33 73.18 1.33C73.16 1.15 73.13 0.97 73.11 0.78C72.99 -0.11 74.5 -0.31 74.68 0.57C76.81 11.05 77.74 21.76 77.9 32.45C78.04 41.46 78.53 51.86 74.43 60.16C66.31 76.6 45.85 74.97 30.99 70.6C31.23 75.21 30.82 79.67 29.76 84.2C29.61 84.84 28.75 85.22 28.19 84.84ZM28.76 69.13C28.71 68.44 29.49 67.9 30.11 68.1C46.05 73.08 69.2 74.64 74.37 54.07C76.48 45.66 75.99 36.22 75.67 27.63C75.38 19.99 74.59 12.41 73.63 4.84C73.47 5.05 73.3 5.28 73.12 5.55C71.04 8.53 68.88 11.47 66.76 14.42C66.45 14.85 65.79 15.18 65.3 14.81C60.92 11.5 56.28 8.78 51.27 6.63C56.31 19.25 60.86 34.5 57.01 47.85C53.64 59.5 41.76 61.88 31.16 59.88C30.59 59.77 30.29 59.09 30.42 58.56C31.43 54.52 31.88 50.57 31.82 46.46C21.22 49.93 11.73 55.6 3.62 63.29C11.41 70.02 19.54 76.29 28.02 82.12C28.89 77.8 29.12 73.56 28.76 69.13Z" />
</svg>