<svg xmlns="http://www.w3.org/2000/svg" viewBox="0 0 78 85" width="78" height="85">
	<style>
		tspan { white-space:pre }
		.shp0 { fill: #000000 } 
	</style>
	<path id="Shape 526 copy" class="shp0" d="M49.81 84.84C59.2 78.46 68.17 71.55 76.73 64.09C77.16 63.72 77.12 62.96 76.73 62.58C67.86 53.9 57.28 47.61 45.44 43.97C44.75 43.75 44.11 44.33 44.08 45C43.89 49.43 44.29 53.7 45.26 57.99C40.02 58.85 34.22 58.8 29.54 56.04C23.83 52.68 22.28 46.23 21.99 40.05C21.44 27.88 25.1 16.1 29.68 4.98C29.99 4.25 29.09 3.39 28.37 3.67C22.98 5.75 17.99 8.42 13.3 11.76C11.65 9.77 10.08 7.74 8.73 5.53C7.76 3.95 7.12 1.68 5.56 0.63C5.29 0.45 5.02 0.7 4.99 0.96C4.97 1.09 4.99 1.22 4.99 1.35C4.93 1.35 4.88 1.33 4.82 1.33C4.84 1.15 4.87 0.97 4.89 0.78C5.01 -0.11 3.5 -0.31 3.32 0.57C1.19 11.05 0.26 21.76 0.1 32.45C-0.04 41.46 -0.53 51.86 3.57 60.16C11.69 76.6 32.15 74.97 47.01 70.6C46.77 75.21 47.18 79.67 48.24 84.2C48.39 84.84 49.25 85.22 49.81 84.84ZM49.24 69.13C49.29 68.44 48.51 67.9 47.89 68.1C31.95 73.08 8.8 74.64 3.63 54.07C1.52 45.66 2.01 36.22 2.33 27.63C2.62 19.99 3.41 12.41 4.37 4.84C4.53 5.05 4.7 5.28 4.88 5.55C6.96 8.53 9.12 11.47 11.24 14.42C11.55 14.85 12.21 15.18 12.7 14.81C17.08 11.5 21.72 8.78 26.73 6.63C21.69 19.25 17.14 34.5 20.99 47.85C24.36 59.5 36.24 61.88 46.84 59.88C47.41 59.77 47.71 59.09 47.58 58.56C46.57 54.52 46.12 50.57 46.18 46.46C56.78 49.93 66.27 55.6 74.38 63.29C66.59 70.02 58.46 76.29 49.98 82.12C49.11 77.8 48.88 73.56 49.24 69.13Z" />
</svg>