<svg xmlns="http://www.w3.org/2000/svg" viewBox="0 0 53 76" width="53" height="76">
	<style>
		tspan { white-space:pre }
		.shp0 { fill: #f4ff46 } 
	</style>
	<path id="Shape 678" class="shp0" d="M45.03 23.03C39.87 22.93 36.01 21.11 30.3 20.34C32.51 14.89 34.3 9.35 35.68 3.64C35.85 2.93 35.16 1.99 34.34 2.32C24.76 6.22 16.21 11.75 12.31 21.67C8.94 30.21 9.79 40.61 15.25 48.11C11.56 47.61 4.61 46.72 4.12 50.32C3.91 51.81 6.31 53.75 7.16 54.71C9.84 57.74 12.77 60.57 15.91 63.14C18.3 65.1 23.72 70.99 26.85 69.2C29.06 67.94 31.21 63.71 32.48 61.74C34.71 58.27 36.57 54.62 38.19 50.84C38.5 50.12 38.15 49.23 37.25 49.23C33.82 49.22 30.39 49.21 26.97 49.2C26.71 36.56 36.47 27.82 47.77 23.78C48.89 23.38 46.18 23.05 45.03 23.03ZM23.79 49.49C23.8 49.73 23.8 48.78 23.9 48.93C23.81 49.47 25.1 52.09 25.81 52.09C28.67 52.1 31.52 52.11 34.38 52.12C33.08 55.04 31.63 55.88 29.92 58.58C28.76 60.4 26.9 64.23 24.22 64C22.7 63.86 19.76 60.8 18.74 59.97C15.9 57.65 13.25 55.11 10.81 52.37C10.29 51.79 9.77 51.19 9.27 50.59C8.61 48.96 9.13 50.43 10.85 51C12.67 50.38 15.77 50.95 17.73 50.81C18.41 50.76 18.59 48.06 18.28 47.64C18.27 47.57 18.25 47.5 18.22 47.44C14.06 39.87 12.13 32.06 15.39 23.68C18.44 15.85 24.78 11.28 32.09 8.01C30.83 12.9 29.27 17.67 27.36 22.36C27.17 22.81 27.56 23.49 28.04 23.56C32.23 24.18 35.43 24.6 39.65 24.83C30.51 29.37 23.41 37.45 23.79 49.49Z" />
</svg>